<svg width="397" height="65" viewBox="0 0 397 65" fill="none" stroke-width="1px" xmlns="http://www.w3.org/2000/svg">
    <g clip-path="url(#clip0_13575_62576)">
        <path d="M124.316 21.653V12.0469H91.4876V62.9887H102.326V43.3395H123.688V33.7334H102.326V21.653H124.316Z" fill="white" stroke="black"/>
        <path d="M158.994 64.0087C174.859 64.0087 187.582 52.3648 187.582 37.519C187.582 22.6003 174.859 11.0293 158.994 11.0293C143.13 11.0293 130.485 22.6003 130.485 37.519C130.485 52.3648 143.13 64.0087 158.994 64.0087ZM158.994 54.1843C149.02 54.1843 141.245 47.2708 141.245 37.519C141.245 27.6945 149.02 20.781 158.994 20.781C168.968 20.781 176.744 27.6945 176.744 37.519C176.744 47.2708 168.968 54.1843 158.994 54.1843Z" fill="white" stroke="black"/>
        <path d="M226.142 62.9887H237.844L225.671 43.7762C231.954 41.0836 236.273 35.3345 236.273 28.9304C236.273 19.6153 228.106 12.0469 217.974 12.0469H195.984V62.9887H206.822V45.3043H215.069L226.142 62.9887ZM206.822 21.4347H217.974C222.059 21.4347 225.435 24.7095 225.435 28.9304C225.435 33.1513 222.059 36.4988 217.974 36.4988H206.822V21.4347Z" fill="white" stroke="black"/>
        <path d="M266.845 12.0469H245.012V62.9887H266.845C282.002 62.9887 293.311 51.8542 293.311 37.5177C293.311 23.1813 282.002 12.0469 266.845 12.0469ZM266.845 53.3822H255.85V21.653H266.845C276.348 21.653 282.945 28.1299 282.945 37.5177C282.945 46.9054 276.348 53.3822 266.845 53.3822Z" fill="white" stroke="black"/>
        <path d="M312.623 53.3822V41.9569H333.435V32.4963H312.623V21.653H335.398V12.0469H301.785V62.9887H335.791V53.3822H312.623Z" fill="white" stroke="black"/>
        <path d="M377.044 21.653V12.0469H344.216V62.9887H355.054V43.3395H376.416V33.7334H355.054V21.653H377.044Z" fill="white" stroke="black"/>
        <path d="M385.727 12.0469V62.9887H396.565V12.0469H385.727Z" fill="white" stroke="black"/>
        <path d="M33.5115 45.0742H0.000793457V53.3671C0.000793457 59.2271 4.75129 63.9778 10.6114 63.9778H24.1233L33.5115 45.0742Z" fill="#7994FF"/>
        <path d="M0 24.166H62.7253L55.4431 38.7733H0V24.166Z" fill="#486DFF"/>
        <path d="M22.0155 0H0.0885925V17.858L74.9124 17.858V5.18582e-05H52.9857V13.3373H48.4631V5.18582e-05H26.5363V13.3373H22.0155V0Z" fill="#5CD1FA"/>
    </g>
    <defs>
        <clipPath id="clip0_13575_62576">
            <rect width="396.781" height="64.1478" fill="white"/>
        </clipPath>
    </defs>
</svg>
